# File created by Blade
# Date/Time:  Wed Apr 08 17:39:35 2015
# Frame Rate: 120.000 fps
#------------------------------------------------------
:FULLY-SPECIFIED
:DEGREES
2876
root 9.646702 37.393118 1.777979 164.735080 -59.226740 -501.581417
Spine -8.782404 -2.059744 1.209584
Head 39.197538 -28.443750 16.442262
LeftShoulder -7.173809 18.925575 18.175430
LeftArm 21.223376 19.524508 -73.117302
LeftForeArm 15.270076 -0.000000 25.801038
LeftHand -12.767848 -0.000000 -10.949626
LeftHandThumb1 -26.253704 0.000000 33.147579
RightShoulder -39.473781 -47.551639 26.006350
RightArm 54.062598 -14.010306 52.578959
RightForeArm -2.775885 -0.000000 10.682509
RightHand -5.946942 -0.000000 13.169299
RightHandThumb1 -24.326973 -0.000000 -32.862282
LeftUpLeg -23.296281 21.814566 5.155072
LeftLeg 10.996634 -0.000000 -0.000000
LeftFoot -11.644158 11.927792 -1.460899
LeftToeBase 6.295558 -0.000000 -0.000000
RightUpLeg -63.010620 1.061442 -8.016667
RightLeg 119.123505 -0.000000 -0.000000
RightFoot 39.006804 -2.651911 23.639487
RightToeBase 39.910126 -0.000000 -0.000000
2877
root 9.635893 37.383200 1.781219 165.049667 -59.134182 -501.922885
Spine -8.795126 -2.117558 1.161153
Head 39.233310 -28.346390 16.408022
LeftShoulder -7.212678 18.980087 18.105824
LeftArm 21.195137 19.642810 -73.016777
LeftForeArm 15.238161 -0.000000 25.751072
LeftHand -12.776824 0.000000 -10.980478
LeftHandThumb1 -26.253704 0.000000 33.147579
RightShoulder -39.427250 -47.550542 25.923295
RightArm 54.051636 -13.931662 52.599444
RightForeArm -2.439336 -0.000000 10.741750
RightHand -5.646454 -0.000000 13.070055
RightHandThumb1 -24.326973 -0.000000 -32.862282
LeftUpLeg -23.247565 21.785478 5.054869
LeftLeg 10.996496 -0.000000 -0.000000
LeftFoot -11.683070 12.073512 -1.461102
LeftToeBase 6.234832 -0.000000 -0.000000
RightUpLeg -63.087650 0.913815 -7.480079
RightLeg 119.616634 -0.000000 -0.000000
RightFoot 39.343056 -2.499233 23.894996
RightToeBase 39.839058 -0.000000 -0.000000
2878
root 9.625337 37.373940 1.783851 165.342865 -59.041879 -502.234222
Spine -8.807578 -2.161736 1.122375
Head 39.258781 -28.293595 16.366152
LeftShoulder -7.242485 19.012723 18.039637
LeftArm 21.154150 19.704924 -72.959038
LeftForeArm 15.278716 -0.000000 25.683774
LeftHand -12.738551 -0.000000 -11.011590
LeftHandThumb1 -26.253704 0.000000 33.147579
RightShoulder -39.445695 -47.584551 25.921929
RightArm 54.056460 -13.723740 52.752558
RightForeArm -2.078473 -0.000000 10.824175
RightHand -5.557228 -0.000000 12.480795
RightHandThumb1 -24.326973 -0.000000 -32.862282
LeftUpLeg -23.216425 21.812070 4.950569
LeftLeg 11.002960 -0.000000 -0.000000
LeftFoot -11.724121 12.176782 -1.423623
LeftToeBase 6.249680 -0.000000 -0.000000
RightUpLeg -63.161865 0.784815 -6.890866
RightLeg 120.049966 -0.000000 -0.000000
RightFoot 39.512549 -2.346662 24.054576
RightToeBase 39.635853 -0.000000 -0.000000
2879
root 9.616370 37.366681 1.786363 165.639927 -58.919716 -502.545864
Spine -8.822670 -2.192694 1.079816
Head 39.276008 -28.231926 16.358290
LeftShoulder -7.227687 19.059967 18.008552
LeftArm 21.114814 19.763291 -72.920001
LeftForeArm 15.355307 -0.000000 25.589447
LeftHand -12.744193 -0.000000 -11.032741
LeftHandThumb1 -26.253704 0.000000 33.147579
RightShoulder -39.446816 -47.592045 25.902139
RightArm 54.047628 -13.556947 52.877052
RightForeArm -1.716124 -0.000000 10.905229
RightHand -5.455813 -0.000000 12.039000
RightHandThumb1 -24.326973 -0.000000 -32.862282
LeftUpLeg -23.188538 21.870855 4.850588
LeftLeg 11.012164 -0.000000 -0.000000
LeftFoot -11.767094 12.272319 -1.412049
LeftToeBase 6.227044 -0.000000 -0.000000
RightUpLeg -63.237385 0.685738 -6.272338
RightLeg 120.375571 -0.000000 -0.000000
RightFoot 39.707559 -2.128127 24.091177
RightToeBase 39.522911 -0.000000 -0.000000
2880
root 9.606741 37.359798 1.791100 165.950939 -58.761798 -502.882818
Spine -8.819947 -2.186748 1.040924
Head 39.274791 -28.184784 16.348377
LeftShoulder -7.250704 19.106606 17.954681
LeftArm 21.103544 19.787464 -72.895342
LeftForeArm 15.468681 0.000000 25.469535
LeftHand -12.729895 -0.000000 -11.080597
LeftHandThumb1 -26.253704 0.000000 33.147579
RightShoulder -39.443696 -47.588843 25.866654
RightArm 54.036296 -13.416283 52.990862
RightForeArm -1.394958 -0.000000 10.985277
RightHand -5.355232 -0.000000 11.628202
RightHandThumb1 -24.326973 -0.000000 -32.862282
LeftUpLeg -23.124853 21.929234 4.759984
LeftLeg 10.988000 -0.000000 -0.000000
LeftFoot -11.789192 12.401790 -1.390660
LeftToeBase 6.202531 -0.000000 -0.000000
RightUpLeg -63.308389 0.623240 -5.629391
RightLeg 120.620734 -0.000000 -0.000000
RightFoot 39.871630 -2.030842 24.115436
RightToeBase 39.455652 -0.000000 -0.000000
2881
root 9.597476 37.353179 1.795957 166.223832 -58.631740 -503.178019
Spine -8.818580 -2.227176 1.014723
Head 39.292766 -28.137161 16.314227
LeftShoulder -7.266440 19.146101 17.917066
LeftArm 21.067447 19.812600 -72.902120
LeftForeArm 15.525196 -0.000000 25.342826
LeftHand -12.791469 -0.000000 -11.078682
LeftHandThumb1 -26.253704 0.000000 33.147579
RightShoulder -39.437922 -47.625770 25.832020
RightArm 54.069507 -13.279714 53.080429
RightForeArm -1.089138 0.000000 11.046085
RightHand -5.211293 -0.000000 11.166977
RightHandThumb1 -24.326973 -0.000000 -32.862282
LeftUpLeg -23.075411 21.961477 4.672313
LeftLeg 10.972683 -0.000000 -0.000000
LeftFoot -11.809635 12.551190 -1.367970
LeftToeBase 6.188876 -0.000000 -0.000000
RightUpLeg -63.356705 0.532993 -4.969360
RightLeg 120.789045 -0.000000 -0.000000
RightFoot 40.050867 -1.950239 24.217473
RightToeBase 39.293473 -0.000000 -0.000000
2882
root 9.587826 37.347346 1.802277 166.528756 -58.486650 -503.497820
Spine -8.826827 -2.234511 0.974483
Head 39.308208 -28.107638 16.285233
LeftShoulder -7.260868 19.192647 17.892040
LeftArm 21.026410 19.797879 -72.936933
LeftForeArm 15.654056 -0.000000 25.227735
LeftHand -12.830620 -0.000000 -11.105271
LeftHandThumb1 -26.253704 0.000000 33.147579
RightShoulder -39.470668 -47.634809 25.822419
RightArm 54.101410 -13.150526 53.161646
RightForeArm -0.729573 -0.000000 11.125881
RightHand -5.085075 0.000000 10.813747
RightHandThumb1 -24.326973 -0.000000 -32.862282
LeftUpLeg -23.038944 22.041722 4.559944
LeftLeg 10.956182 -0.000000 -0.000000
LeftFoot -11.828435 12.651636 -1.363518
LeftToeBase 6.137375 -0.000000 -0.000000
RightUpLeg -63.414122 0.452823 -4.300989
RightLeg 120.892600 -0.000000 -0.000000
RightFoot 40.298863 -1.643722 24.116911
RightToeBase 38.678880 -0.000000 -0.000000
